<svg width="50" height="32" viewBox="0 0 50 32" fill="none" xmlns="http://www.w3.org/2000/svg">
<rect x="2" y="6" width="46" height="20" rx="2" stroke="#CC3D49" stroke-width="1.5"/>
<path d="M20.5 12V19C20.5 19.5523 20.9477 20 21.5 20H24.5" stroke="#CC3D49" stroke-width="1.5" stroke-linecap="round"/>
<path d="M29.5 12L32.5 20L35.5 12" stroke="#CC3D49" stroke-width="1.5" stroke-linecap="round" stroke-linejoin="round"/>
<path d="M42 12H39C38.4477 12 38 12.4477 38 13V16M38 16V19C38 19.5523 38.4477 20 39 20H42M38 16H41.5" stroke="#CC3D49" stroke-width="1.5" stroke-linecap="round"/>
<path d="M27 12V20" stroke="#CC3D49" stroke-width="1.5" stroke-linecap="round"/>
<path d="M8 12C12.4183 12 16 15.5817 16 20M8 15C10.7614 15 13 17.2386 13 20" stroke="#CC3D49" stroke-width="1.5" stroke-linecap="round"/>
<path d="M9.5 19.25C9.5 19.6642 9.16421 20 8.75 20C8.33579 20 8 19.6642 8 19.25C8 18.8358 8.33579 18.5 8.75 18.5C9.16421 18.5 9.5 18.8358 9.5 19.25Z" stroke="#CC3D49" stroke-width="1.5"/>
</svg>
