<svg width="100%" height="64" viewBox="0 0 389 64" fill="none" xmlns="http://www.w3.org/2000/svg">
<g clip-path="url(#clip0_84_249)">
<path d="M30.1177 60.2353C46.7512 60.2353 60.2353 46.7512 60.2353 30.1177C60.2353 13.4841 46.7512 0 30.1177 0C13.4841 0 0 13.4841 0 30.1177C0 46.7512 13.4841 60.2353 30.1177 60.2353Z" fill="#0055A6"/>
<path d="M53.8581 42.2684C53.2971 42.4566 52.7929 42.6412 52.278 42.7975C51.7774 42.9501 51.2696 43.0815 50.7619 43.2129C49.9523 43.4224 49.1427 43.6248 48.3296 43.8307C47.4809 44.0473 46.643 44.2852 45.8298 44.6119C44.6368 45.0913 43.5502 45.7446 42.4957 46.4441C41.75 46.9377 41.0434 47.4845 40.3155 48.0029C39.5663 48.532 38.8277 49.0823 38.0536 49.5759C36.992 50.2541 35.8664 50.8151 34.6271 51.1418C34.1797 51.259 33.7288 51.369 33.2565 51.3584C32.8269 51.3477 32.4008 51.3832 31.9676 51.2909C31.2539 51.1418 30.5935 50.8861 30.0147 50.4707C29.2477 49.9239 28.6015 49.2563 28.0582 48.5036C27.4865 47.7082 26.9397 46.9022 26.3752 46.1068C26.1763 45.8298 25.9526 45.5671 25.7289 45.3043C25.6579 45.2191 25.5727 45.141 25.4768 45.0842C25.2531 44.9492 25.0223 44.8285 24.8412 44.7255C24.2056 44.6439 23.7369 44.8711 23.3463 45.2368C22.8847 45.67 22.4515 46.1316 22.0042 46.579C21.6988 46.8879 21.3721 47.172 20.9957 47.4064C20.5341 47.6975 20.0299 47.8751 19.4796 47.9106C19.089 47.9354 18.709 47.8325 18.3327 47.733C17.4627 47.4951 16.7881 46.998 16.2306 46.3269C15.8684 45.8902 15.4814 45.4747 15.0837 45.0664C14.4978 44.4663 13.7841 44.097 12.9248 43.9657C12.3816 43.884 11.8383 43.8343 11.3128 43.987C10.9683 44.0864 10.6381 44.2568 10.3328 44.4415C9.67232 44.8427 9.15391 45.3966 8.62129 45.9328C8.21295 46.3447 7.82592 46.7814 7.43178 47.204C7.2862 47.3602 7.11221 47.4738 6.88496 47.5271C6.82815 47.4703 6.76779 47.4099 6.72163 47.3638C6.66126 47.0158 6.76779 46.7282 6.90982 46.437C7.21873 45.7908 7.67323 45.2439 8.17389 44.7326C8.51122 44.3847 8.85919 44.0438 9.23202 43.7278C10.1836 42.9217 11.2347 42.2684 12.4561 41.8849C13.0527 41.6967 13.6705 41.647 14.2883 41.7109C14.5688 41.7393 14.8493 41.8423 15.1121 41.9488C15.7335 42.2009 16.2697 42.5809 16.8058 42.9679C17.2887 43.3159 17.7361 43.71 18.3007 43.9479C18.5919 44.0686 18.8866 44.1681 19.2061 44.1787C19.7991 44.1965 20.2927 43.955 20.6939 43.5715C21.0774 43.2058 21.4218 42.7975 21.7662 42.3962C22.0929 42.0127 22.4125 41.6222 22.8386 41.331C23.1937 41.086 23.602 40.9617 24.0281 40.9049C24.7489 40.8055 25.42 40.9759 26.013 41.3558C26.3645 41.5795 26.677 41.8636 26.9539 42.1903C27.6286 42.9928 28.1505 43.8875 28.7329 44.7468C29.0276 45.18 29.2548 45.6558 29.5247 46.1032C29.8407 46.6287 30.2348 47.0974 30.629 47.5662C31.0089 48.0171 31.4634 48.3686 31.9605 48.6811C32.376 48.9438 32.834 49.0788 33.3276 49.164C34.0945 49.2954 34.7976 49.1107 35.4935 48.8551C36.4771 48.4929 37.3399 47.9248 38.1886 47.3353C39.0337 46.7495 39.8752 46.1529 40.7167 45.56C41.2138 45.212 41.7038 44.8463 42.2187 44.5231C43.2626 43.8662 44.335 43.2555 45.4854 42.7762C46.4193 42.3891 47.378 42.0767 48.3864 41.9098C48.7699 41.8459 49.1605 41.8139 49.5439 41.7571C50.0517 41.6825 50.5559 41.6932 51.0601 41.7074C51.9407 41.7358 52.8071 41.8814 53.6451 42.1512C53.6983 42.169 53.7481 42.208 53.8581 42.2684Z" fill="white"/>
<path d="M35.9622 21.5354C35.9054 21.6597 35.8841 21.752 35.8273 21.823C35.3125 22.4941 34.8011 23.1652 34.2756 23.8292C33.814 24.4151 33.3453 25.001 32.8731 25.5798C32.5322 25.9988 32.1771 26.4071 31.8291 26.8225C31.4599 27.2664 31.0941 27.7138 30.7213 28.1541C30.4586 28.463 30.1887 28.7684 29.9259 29.0773C29.3933 29.7058 28.8643 30.3342 28.3281 30.9627C27.9517 31.403 27.5718 31.8362 27.1918 32.2765C27.0321 32.4612 26.8723 32.6494 26.6983 32.8553C26.819 32.8624 26.9255 32.8695 27.0569 32.8766C27.0498 33.1642 26.9007 33.3737 26.748 33.569C26.574 33.7927 26.3681 33.9915 26.1763 34.201C25.6934 34.7301 25.2141 35.2592 24.7312 35.7882C24.5643 35.9693 24.4009 36.1575 24.234 36.3386C23.8257 36.7825 23.4103 37.2263 23.0019 37.6737C22.6042 38.114 22.2208 38.5614 21.8231 39.0017C21.6846 39.1544 21.5319 39.3 21.4005 39.4668C21.681 39.4136 21.9012 39.2573 22.132 39.1331C22.7995 38.7673 23.4671 38.4052 24.1275 38.0288C24.8448 37.624 25.562 37.2227 26.3112 36.8748C27.3126 36.4167 28.3458 36.0616 29.4359 35.8486C30.0822 35.7208 30.7249 35.6356 31.3853 35.6427C31.8824 35.6498 32.3795 35.6427 32.8802 35.6427C33.0826 35.49 33.0329 35.245 33.079 35.0461C33.2992 34.0839 33.6045 33.15 33.9667 32.2304C34.2792 31.4279 34.6556 30.6538 35.0817 29.9011C35.3089 29.4998 35.5646 29.1128 35.8096 28.7186C36.3422 27.87 36.96 27.0782 37.5885 26.297C38.0963 25.665 38.6502 25.0685 39.1864 24.4577C39.7474 23.8186 40.319 23.1901 40.8765 22.5474C41.0292 22.3734 41.1393 22.1675 41.2813 21.958C40.9972 21.7449 40.6848 21.6171 40.3759 21.4999C39.165 21.0383 37.94 20.6051 36.7257 20.1435C36.1646 19.9305 35.6143 19.689 35.0746 19.4298C34.7053 19.2523 34.3289 19.0676 34.0413 18.7658C33.9916 18.7161 33.9596 18.6522 33.9099 18.5847C34.1087 18.29 34.4212 18.219 34.7266 18.1906C35.1669 18.1551 35.6107 18.1729 36.0475 18.2794C36.7008 18.4392 37.3577 18.5954 38.0146 18.7445C38.2205 18.7907 38.4336 18.8049 38.7354 18.8475C38.3661 18.606 38.0359 18.4782 37.7092 18.3397C37.2015 18.1267 36.6902 17.9101 36.3067 17.5018C36.0297 17.207 35.9409 16.8591 35.9232 16.4436C36.2818 16.4152 36.6227 16.433 36.9636 16.433C37.2938 16.4294 37.624 16.433 37.9684 16.433C37.9755 16.3726 37.9826 16.33 37.9897 16.2803C37.6524 16.0637 37.3186 15.8506 37.0168 15.6554C36.9565 15.421 37.0346 15.2683 37.1589 15.144C37.2796 15.0269 37.4287 14.9381 37.6027 14.8067C37.656 14.5369 37.4962 14.2457 37.4323 13.9474C37.3222 13.4397 37.3257 12.939 37.4749 12.4455C37.6666 11.8134 37.9968 11.2488 38.4123 10.7269C38.7674 10.283 39.1402 9.85339 39.5734 9.48056C39.9888 9.12549 40.4114 8.78106 40.8517 8.45794C41.5902 7.91112 42.3288 7.36785 43.0922 6.85654C43.845 6.35233 44.6261 5.88718 45.3967 5.41138C45.4819 5.35812 45.5848 5.26224 45.7162 5.38652C45.599 5.60312 45.4038 5.75935 45.2085 5.90849C44.5303 6.43045 43.8414 6.93821 43.1526 7.44952C42.6057 7.85786 42.0554 8.2591 41.5086 8.66744C41.331 8.80236 41.157 8.94085 40.9866 9.08998C40.5676 9.45926 40.1344 9.81789 39.7403 10.212C39.1544 10.7979 38.6111 11.4193 38.2418 12.1578C38.0359 12.5733 37.8974 12.9994 37.8939 13.4752C37.8939 14.0042 38.1495 14.3806 38.565 14.6682C39.0692 15.0198 39.6515 15.2222 40.2622 15.3358C41.086 15.4885 41.9098 15.6412 42.7407 15.7654C43.2875 15.8471 43.8237 15.9714 44.3421 16.1454C44.58 16.2235 44.8108 16.3265 45.0274 16.4507C45.1481 16.5217 45.2298 16.6531 45.3398 16.7667C45.038 17.0046 44.7149 17.0899 44.3705 17.1112C43.6319 17.1502 42.9182 17.026 42.2116 16.8307C41.2742 16.5715 40.3333 16.3193 39.3923 16.0708C39.2254 16.0246 39.0514 15.9927 38.881 15.9572C39.0337 16.1631 39.2858 16.33 39.6053 16.4401C40.1735 16.6389 40.7593 16.7632 41.3452 16.8839C41.7997 16.9762 42.2578 17.0544 42.6981 17.1893C43.1881 17.3384 43.6816 17.4911 44.1113 17.7681C44.3208 17.903 44.4877 18.0841 44.6687 18.3007C44.3811 18.393 44.129 18.361 43.8876 18.3433C43.6 18.322 43.3194 18.251 43.0354 18.2155C42.2507 18.1196 41.4908 17.9136 40.7274 17.729C39.8894 17.5266 39.055 17.3136 38.2134 17.1289C37.8832 17.0579 37.5388 17.0544 37.1873 17.0189C37.2654 17.2639 37.3577 17.413 37.5707 17.5266C37.9649 17.7397 38.3626 17.9527 38.7816 18.1196C39.7651 18.5137 40.7984 18.7729 41.8175 19.0712C42.2862 19.2061 42.7478 19.3588 43.2094 19.5115C43.3408 19.5541 43.465 19.6145 43.6 19.6713C43.6319 19.7316 43.6674 19.792 43.7171 19.8808C43.5538 19.9589 43.4047 20.0583 43.2413 20.1009C43.0354 20.1542 42.8188 20.1755 42.6093 20.1861C41.7465 20.2252 40.9085 20.0725 40.0634 19.9127C39.1047 19.7281 38.1637 19.4795 37.2121 19.2771C36.8251 19.1955 36.4381 19.0712 36.0191 19.089C36.0688 19.2523 36.2073 19.2913 36.3244 19.3446C36.6902 19.5044 37.0559 19.6713 37.4323 19.8027C38.1034 20.037 38.7816 20.2501 39.4598 20.4667C40.209 20.701 40.9653 20.9247 41.7145 21.1626C41.853 21.2052 41.9808 21.2904 42.1193 21.3614C42.0341 21.681 41.892 21.9438 41.7323 22.203C41.292 22.9238 40.7664 23.5842 40.248 24.2518C39.8326 24.7844 39.3781 25.285 38.9484 25.807C38.3413 26.5456 37.7412 27.2912 37.134 28.0298C36.4452 28.8678 35.8806 29.7803 35.4048 30.7426C34.9432 31.6764 34.5668 32.6423 34.3928 33.6684C34.3076 34.1762 34.2401 34.6875 34.162 35.1988C34.1016 35.5894 34.0413 35.98 33.9738 36.4061C33.5797 36.4238 33.1749 36.4096 32.7737 36.3954C32.6103 36.3883 32.4505 36.3457 32.2908 36.3386C31.9605 36.328 31.6268 36.3351 31.2965 36.3315C30.5225 36.3209 29.7733 36.4735 29.0311 36.6653C27.799 36.9848 26.6308 37.4571 25.5088 38.0252C24.7844 38.391 24.0885 38.8064 23.389 39.2112C22.6113 39.6586 21.8408 40.1131 21.0739 40.5782C20.6265 40.8481 20.1933 41.1392 19.7601 41.4269C19.6713 41.4872 19.5932 41.5689 19.5293 41.6506C19.3801 41.8459 19.2523 42.0518 19.1032 42.2471C19.0144 42.3643 18.9114 42.4779 18.7943 42.5667C18.5244 42.7691 18.2297 42.7335 17.9314 42.4566C18.1764 42.1441 18.4179 41.821 18.6771 41.5156C19.2452 40.8374 19.8346 40.1734 20.3992 39.4917C21.1804 38.5472 21.9438 37.5885 22.725 36.6369C23.0765 36.2108 23.4458 35.7953 23.8009 35.3728C24.2021 34.8899 24.5927 34.4034 24.9868 33.917C25.3987 33.4128 25.807 32.9086 26.2225 32.4079C26.606 31.9427 26.993 31.4847 27.38 31.0231C27.6499 30.7035 27.934 30.3946 28.2038 30.075C28.6938 29.4927 29.1803 28.9068 29.6703 28.3245C30.0538 27.8736 30.4408 27.4297 30.8278 26.9823C31.293 26.4426 31.7546 25.8958 32.2304 25.3632C32.6316 24.9122 33.0542 24.4755 33.4625 24.0281C33.8602 23.5913 34.2366 23.1333 34.6449 22.7036C35.0142 22.3166 35.4154 21.9615 35.8025 21.5922C35.8309 21.5496 35.8628 21.5532 35.9622 21.5354ZM26.3077 33.3844C26.155 33.466 26.0236 33.5655 26.0023 33.7501C25.9881 33.7643 25.9739 33.782 25.9597 33.7963C25.9704 33.7785 25.981 33.7572 25.9917 33.7394C26.1373 33.6507 26.2793 33.5619 26.297 33.3773C26.3148 33.3666 26.3326 33.356 26.3184 33.3666C26.3255 33.3418 26.3184 33.3631 26.3077 33.3844ZM26.4036 33.1962L26.4213 33.2104L26.4249 33.1855L26.4036 33.1962Z" fill="white"/>
<path d="M26.297 33.3737C26.2793 33.5619 26.1373 33.6507 25.9917 33.7359L26.0023 33.7465C26.0236 33.5619 26.155 33.4625 26.3077 33.3808L26.297 33.3737Z" fill="#0055A6"/>
<path d="M26.4036 33.195L26.4225 33.1855L26.4193 33.2076L26.4036 33.195Z" fill="#0055A6"/>
<path d="M26.307 33.3825C26.3137 33.3625 26.3237 33.3425 26.317 33.3625C26.3336 33.3525 26.3137 33.3625 26.297 33.3725L26.307 33.3825Z" fill="#0055A6"/>
<path d="M25.9892 33.7359C25.9794 33.7523 25.9695 33.7719 25.9597 33.7883C25.9728 33.7752 25.9859 33.7588 25.999 33.7457L25.9892 33.7359Z" fill="#0055A6"/>
</g>
<path d="M131.566 15.5455C129.079 16.5187 129.079 16.5187 128.082 15.0567C129.161 13.1665 130.272 11.2114 131.456 9.13095C135.191 8.58596 138.491 9.33857 141.234 11.9597C144.091 14.689 145.256 18.1926 146.152 21.7783C146.993 25.1521 147.519 28.5994 147.112 32.0597C146.788 34.8322 146.308 37.6221 145.503 40.2951C144.507 43.6083 142.075 46.0089 138.742 47.8429C139.433 48.3576 140.004 48.7858 140.58 49.2054C143.889 51.6146 144.589 55.2479 142.399 58.5914C141.494 59.9755 140.292 61.0784 138.774 61.8051C132.361 64.8718 126.062 64.8415 119.991 60.9746C118.57 60.0706 117.628 58.786 117.02 57.2462C116.024 54.7375 116.659 52.5791 118.488 50.676C119.201 49.9363 120.065 49.3265 120.979 48.5566C119.991 47.778 118.968 47.06 118.058 46.2338C114.406 42.9033 113.482 38.7077 114.086 34.1488C114.575 30.4376 115.379 26.7654 115.873 23.0586C116.06 21.6615 115.832 20.1952 115.649 18.7765C115.571 18.1666 115.169 17.574 114.853 17.0074C114.264 15.9434 113.272 15.4762 112.033 15.5065C110.735 15.5368 109.876 16.3024 109.418 17.3188C109.044 18.1536 108.847 19.1225 108.847 20.0352C108.842 27.2412 108.897 34.4429 108.957 41.649C108.966 42.5097 109.108 43.3705 109.172 44.2312C109.263 45.4423 109.679 46.4761 110.849 47.1292C111.553 47.5228 112.047 48.0764 111.837 48.8983C111.59 49.8542 110.735 50.0228 109.866 50.0315C105.757 50.0747 101.643 50.1223 97.5334 50.105C95.9472 50.1007 95.7415 49.8066 95.6592 47.9899C98.1231 46.8783 98.3379 44.7113 98.3105 42.3886C98.2282 36.2639 98.2236 30.1392 98.1505 24.0145C98.1322 22.4314 98.0499 20.844 97.8625 19.2739C97.474 16.0515 94.6536 14.7582 91.7372 16.4192C90.3201 17.228 89.2779 18.3526 88.8299 19.8881C87.3763 24.8752 87.0106 29.9575 87.5317 35.0831C87.7191 36.9257 88.2539 38.7466 88.775 40.5417C89.1682 41.8955 90.0184 43.0028 91.664 43.6256C92.3908 43.4051 93.2411 43.1455 94.0867 42.886C95.2981 43.3705 95.2112 44.162 94.6444 44.9925C93.4925 46.6837 92.2948 48.3403 91.1658 49.945C84.9901 51.3161 81.0269 48.2797 78.7551 43.7597C77.402 41.065 76.698 38.1714 76.4375 35.2215C76.0032 30.3122 76.2044 25.4289 77.6763 20.658C79.0156 16.3283 81.5435 12.8205 85.9364 10.8222C91.8469 8.1318 97.442 8.96227 102.694 12.4961C102.818 12.5783 102.941 12.6648 102.891 12.6302C105.3 11.5532 107.512 10.1561 109.944 9.56781C115.173 8.30914 120.097 9.19151 124.115 12.8637C127.026 15.5282 127.735 19.0014 127.314 22.6174C126.917 26.0431 126.089 29.4212 125.545 32.8296C125.171 35.1826 125.006 37.5572 125.811 39.8842C126.547 42.008 128.498 43.604 130.354 43.617C132.123 43.63 134.212 42.0036 134.957 39.9404C135.277 39.0581 135.575 38.1411 135.666 37.2241C136.26 31.2422 136.023 25.2991 134.327 19.4772C133.883 17.9979 133.431 16.3802 131.566 15.5455ZM132.279 52.3456C132.242 52.2504 132.201 52.1552 132.16 52.0644C131.41 50.4381 129.815 50.1137 128.553 51.4286C127.068 52.9771 127.159 56.2081 128.741 57.6787C129.76 58.626 131.493 58.2583 132.096 57.0342C132.151 56.9218 132.206 56.8007 132.251 56.6839C132.814 55.2955 132.823 53.7383 132.279 52.3456Z" fill="black"/>
<path d="M168.72 8.61191C169.442 10.926 171.17 12.8767 170.974 15.7531C170.041 15.6017 169.31 15.5671 168.642 15.3551C166.773 14.7582 165.282 15.1172 163.929 16.536C161.63 18.9409 160.565 21.8345 160.117 24.9358C159.29 30.6453 159.852 36.2639 161.685 41.7701C164.19 49.3005 169.68 53.6561 177.739 55.1484C183.576 56.2297 189.409 55.9616 195.123 54.3352C197.404 53.6864 199.52 52.6873 201.043 50.8533C201.491 50.317 201.833 49.7028 202.396 48.8766H182.955C181.816 47.2373 180.486 45.611 179.535 43.5694C180.317 43.1628 180.957 42.8298 181.652 42.4664C182.977 40.3124 183.119 37.821 183.188 35.4075C183.261 32.7604 182.886 30.1003 182.689 27.4488C182.662 27.0941 182.539 26.7438 182.438 26.3978C181.903 24.6244 180.651 23.4868 179.22 23.4608C177.748 23.4349 176.029 24.659 175.609 26.3113C175.184 27.9808 174.877 29.7023 174.759 31.4152C174.562 34.2137 174.525 37.0165 175.17 39.7977C175.613 41.7095 176.372 43.2234 178.653 43.4007C178.69 45.0184 178.69 45.0184 174.448 49.1275C171.44 48.9502 169.054 47.605 167.202 45.3212C164.249 41.6749 163.769 37.4058 163.87 33.0329C163.907 31.3935 164.199 29.7369 164.547 28.1236C165.854 22.0681 170.032 18.5732 176.198 17.3794C182.296 16.1986 187.649 17.773 191.503 22.7169C192.325 23.7766 192.929 24.9704 193.299 26.242C194.314 29.7326 194.652 33.2751 193.989 36.9084C193.509 39.5339 192.467 41.8522 190.506 44.0149H202.364C202.364 42.2761 202.382 40.7104 202.359 39.1489C202.245 31.5103 202.121 23.8761 202.003 16.2375C201.993 15.6622 202.012 15.0826 201.989 14.5074C201.934 12.9719 201.591 11.5921 200.019 10.8351C199.571 10.6189 199.283 10.1863 199.278 9.71055C199.278 9.63269 199.278 9.55051 199.274 9.46833C199.264 8.7287 199.882 8.11882 200.663 8.10584C203.438 8.05394 209.559 7.93716 212.507 7.87228C212.964 7.86362 213.421 7.89823 213.878 7.89823C214.729 7.89823 215.369 8.20965 215.62 9.01417C215.858 9.76245 215.456 10.3204 214.806 10.6275C213.042 11.458 212.96 12.9719 212.964 14.5074C212.983 19.1917 213.037 23.8761 213.069 28.5604C213.101 32.9636 213.115 37.3712 213.152 41.7744C213.161 42.886 213.22 44.707 213.334 45.8143C213.705 49.3135 212.05 52.0039 209.353 54.1362C207.739 55.4122 205.87 56.4763 203.964 57.337C197.39 60.2999 190.447 61.4807 183.142 61.1649C178.644 60.9703 174.151 60.8362 169.794 59.6987C163.248 57.9945 157.498 55.0489 153.685 49.4822C151.51 46.303 150.216 42.7822 149.649 39.0235C148.643 32.3711 148.799 25.8052 151.313 19.4296C152.332 16.8431 153.772 14.4814 155.944 12.5783C159.518 9.44238 163.806 8.41294 168.72 8.61191Z" fill="black"/>
<path d="M339.412 46.8437C338.534 45.6672 337.537 44.4172 336.641 43.1066C336.093 42.3107 336.363 41.5971 337.213 41.0996C340.084 41.3332 341.437 40.5503 342.182 37.9594C344.024 31.5622 344.106 25.165 341.798 18.8457C341.126 17.0074 340.152 15.273 338.548 13.9624C336.294 12.1198 333.931 11.471 330.772 11.804C331.855 13.2357 333.071 14.6112 334.022 16.1424C335.864 19.1095 336.619 22.4011 336.975 25.8052C337.4 29.8494 337.14 33.8287 336.047 37.7691C333.058 48.5566 320.565 50.3472 313.434 44.5989C311.688 43.1931 310.499 41.3029 309.699 39.2484C307.395 33.327 307.212 27.3104 308.872 21.2246C309.818 17.76 311.541 14.7063 314.704 11.9857C313.63 11.9857 312.986 11.9338 312.359 11.9943C308.419 12.3836 305.594 14.2478 303.866 17.6606C302.769 19.8319 302.001 22.094 301.764 24.4643C301.302 29.0795 301.389 33.6773 303.062 38.1238C303.29 38.7293 303.574 39.3219 303.88 39.8972C304.529 41.1126 305.535 41.7225 307.025 41.5192C307.532 41.45 308.058 41.5062 308.451 41.5062C309.342 42.4448 309.151 43.2061 308.515 43.9717C307.624 45.04 306.751 46.1214 305.868 47.2027C300.676 47.6309 295.108 44.6291 292.713 38.6947C289.869 31.6401 289.764 24.473 292.735 17.401C295.272 11.3542 300.237 7.93283 306.774 6.53574C311.441 5.54091 316.158 5.81341 320.812 6.81689C321.959 7.06343 323.006 7.02883 324.153 6.76499C329.698 5.49333 335.279 5.03917 340.806 6.84717C346.282 8.63354 350.231 12.0073 352.247 17.2064C354.762 23.6858 355.022 30.2646 352.887 36.8824C351.818 40.2043 349.939 43.0028 346.78 44.9622C344.595 46.3117 342.241 46.887 339.412 46.8437ZM322.475 15.9434C320.688 18.0239 319.472 20.7662 319.065 23.0802C318.307 27.3969 318.745 31.6963 319.207 35.9871C319.335 37.1549 319.902 38.353 320.537 39.3911C321.785 41.4327 324.002 41.2986 325.095 39.1359C325.543 38.2449 325.753 37.2328 325.995 36.2596C326.151 35.6324 326.192 34.9793 326.247 34.3348C326.64 29.871 326.818 25.4159 325.433 21.056C324.839 19.2047 324.272 17.3188 322.475 15.9434Z" fill="black"/>
<path d="M232.2 46.9302C231.619 48.2321 230.618 48.3879 229.768 48.4052C225.43 48.4744 221.092 48.4398 216.754 48.4225C216.548 48.4225 216.342 48.2667 216.159 48.1889C215.538 46.4544 215.538 46.4544 218.006 44.8886C218.143 43.9198 218.459 42.7346 218.463 41.5408C218.491 36.3547 218.436 31.1686 218.39 25.9825C218.376 24.3302 218.194 22.678 218.248 21.03C218.477 14.3344 222.495 9.60674 229.334 8.00204C234.499 6.79094 239.692 6.6136 244.889 7.75549C247.998 8.4389 250.791 9.69325 252.637 12.3231C254.598 15.1216 254.836 18.132 253.497 21.1727C252.432 23.5949 249.927 24.8147 246.933 24.4427C245.589 24.274 244.711 24.7152 243.998 25.6322C243.39 26.4151 243.509 27.8554 244.172 28.6816C244.93 29.6331 245.954 29.9878 247.188 29.7759C247.412 29.7369 247.627 29.6634 247.851 29.6158C251.362 28.9065 253.419 29.9792 254.461 33.2534C255.668 37.0511 255.659 40.7579 253.213 44.2225C251.508 46.6361 249.072 47.8039 246.119 47.9553C243.234 48.1067 240.332 48.0678 237.438 48.0591C235.715 48.0548 235.189 47.6698 234.654 46.0608C234.129 44.4864 233.699 42.886 233.237 41.3419C234.266 39.9404 234.54 39.8064 235.678 40.745C237.063 41.8869 238.604 42.1334 240.341 41.982C243.463 41.7095 244.45 37.7129 242.988 35.9265C242.43 35.2474 241.703 34.9706 240.816 34.9274C239.76 34.8755 238.695 34.8192 237.648 34.6678C235.998 34.4299 234.887 33.4784 234.321 32.0294C233.178 29.0968 233.004 26.0734 234.156 23.1537C234.883 21.3111 236.455 20.139 238.727 20.1866C239.413 20.1995 240.094 20.2471 240.78 20.2471C242.654 20.2558 243.696 19.1571 243.536 17.3621C243.294 14.6155 241.552 12.9243 238.558 12.6388C237.658 12.5523 236.725 12.6085 235.825 12.708C231.509 13.2011 229.32 15.9131 229.128 19.8881C228.959 23.3311 229.183 26.7957 229.233 30.2473C229.279 33.4784 229.32 36.7094 229.375 39.9404C229.393 40.9483 229.388 41.9561 229.48 42.9595C229.567 43.9111 229.923 44.7329 230.805 45.3558C231.368 45.7624 231.747 46.4068 232.2 46.9302Z" fill="black"/>
<path d="M258.146 32.2889C261.359 31.7223 264.335 31.1946 267.311 30.6712C268.06 30.5415 268.801 30.3857 269.555 30.2863C270.264 30.1911 270.931 30.2387 271.32 30.9524C271.699 31.6574 271.384 32.2846 270.899 32.7214C268.371 35.0225 269.18 37.7129 269.848 40.373C269.962 40.8358 270.337 41.2727 270.689 41.6403C272.01 43.0158 273.646 42.9422 274.679 41.3721C275.274 40.4681 275.758 39.4387 276 38.4049C277.76 30.9783 277.76 23.569 275.53 16.2159C275.26 15.3292 274.839 14.4468 274.3 13.6812C273.345 12.3187 272.046 12.1587 270.853 13.3049C270.186 13.9451 269.505 14.8188 269.381 15.6579C269.144 17.2756 269.189 18.9538 269.354 20.5888C269.418 21.203 270.131 21.761 270.547 22.3492C270.876 22.812 271.205 23.2792 271.562 23.7852C271.214 24.2783 270.931 24.6763 270.552 25.2126C266.502 24.5811 262.47 23.9539 258.488 23.3311C257.016 13.452 264.28 4.29953 276.224 7.02451C281.148 8.1491 284.398 11.1639 286.039 15.5671C288.795 22.9634 289.028 30.5068 286.779 38.0719C285.897 41.0391 284.325 43.6473 281.733 45.6067C274.753 50.8793 261.341 49.8152 258.763 37.5312C258.406 35.8573 258.351 34.1272 258.146 32.2889Z" fill="black"/>
<path d="M357.248 31.7872C356.928 27.6521 358.03 23.8977 360.699 20.645C363.547 17.1761 367.273 15.2297 372.04 15.1086C375.4 15.0221 378.541 15.4935 381.411 17.2367C386.005 20.0265 388.145 24.1875 388.606 29.1487C388.853 31.7872 388.657 34.4386 387.848 37.0554C386.202 42.3886 381.366 46.5193 374.664 47.06C365.796 47.7737 359.74 42.8903 357.756 35.6237C357.422 34.3867 357.413 33.0675 357.248 31.7872ZM368.402 30.7058C368.402 31.7136 368.315 32.7258 368.42 33.7249C368.649 35.8919 369.289 37.9551 370.537 39.8064C371.899 41.8263 374.468 41.8652 375.702 39.7891C376.36 38.6818 376.895 37.4144 377.069 36.1687C377.389 33.9023 377.594 31.5839 377.489 29.3044C377.38 26.9514 376.973 24.5898 375.579 22.5049C374.897 21.4798 373.997 21.0473 372.74 21.0646C371.41 21.0819 370.674 21.7956 370.089 22.7991C368.644 25.2602 368.242 27.9376 368.402 30.7058Z" fill="black"/>
<defs>
<clipPath id="clip0_84_249">
<rect width="60.2353" height="60.2353" fill="white"/>
</clipPath>
</defs>
</svg>
