<svg width="527" height="91" viewBox="0 0 527 91" fill="none" xmlns="http://www.w3.org/2000/svg">
<path d="M89.3813 44.5745C89.3813 69.1716 69.4414 89.1116 44.8442 89.1116C20.2471 89.1116 0.307129 69.1716 0.307129 44.5745C0.307129 19.9773 20.2471 0.0373535 44.8442 0.0373535C69.4414 0.0373535 89.3813 19.9773 89.3813 44.5745Z" fill="#1A417C"/>
<path d="M48.2452 45.6605C51.2305 45.6605 53.6505 43.2406 53.6505 40.2555C53.6505 37.2704 51.2305 34.8505 48.2452 34.8505C45.2603 34.8505 42.8404 37.2704 42.8404 40.2555C42.8404 43.2406 45.2603 45.6605 48.2452 45.6605Z" fill="white"/>
<path d="M22.5635 60.5988C18.3482 69.6382 19.3624 77.5405 21.024 82.2131C24.314 84.2997 27.8965 85.9667 31.6959 87.139C36.5689 84.9991 42.586 80.7222 46.7149 72.7675C51.9005 62.7781 48.5157 50.2129 44.9068 46.7051L37.7276 61.8907C38.7745 62.6688 39.4532 63.9152 39.4532 65.3201C39.4532 67.6781 37.5416 69.5896 35.1837 69.5896C32.8257 69.5896 30.9141 67.6781 30.9141 65.3201C30.9141 62.962 32.8257 61.0505 35.1837 61.0505C35.584 61.0505 35.9717 61.1057 36.3394 61.2087L44.6275 46.61C39.5777 46.0071 27.3511 50.3307 22.5635 60.5988Z" fill="white"/>
<path d="M180.269 24.9052C176.919 26.2161 176.919 26.2161 175.577 24.2468C177.03 21.7008 178.526 19.0673 180.121 16.2649C185.151 15.5308 189.597 16.5446 193.291 20.0753C197.14 23.7516 198.71 28.4708 199.916 33.3008C201.049 37.8452 201.758 42.4887 201.21 47.1496C200.772 50.8842 200.126 54.6421 199.042 58.2427C197.7 62.7056 194.424 65.9392 189.935 68.4095C190.865 69.1028 191.635 69.6796 192.411 70.2447C196.869 73.4899 197.811 78.3839 194.861 82.8876C193.642 84.752 192.023 86.2376 189.979 87.2164C181.34 91.3472 172.855 91.3064 164.678 86.0978C162.763 84.8801 161.495 83.1498 160.676 81.0756C159.334 77.6964 160.19 74.7892 162.653 72.2256C163.613 71.2293 164.777 70.4078 166.008 69.3708C164.678 68.3221 163.299 67.3549 162.074 66.2421C157.154 61.7559 155.91 56.1045 156.723 49.9637C157.382 44.9648 158.466 40.0184 159.131 35.0253C159.383 33.1435 159.075 31.1684 158.829 29.2574C158.724 28.4359 158.182 27.6377 157.757 26.8745C156.963 25.4412 155.627 24.812 153.958 24.8528C152.21 24.8936 151.052 25.9248 150.436 27.2939C149.932 28.4184 149.667 29.7235 149.667 30.9528C149.661 40.6593 149.734 50.3599 149.815 60.0663C149.827 61.2258 150.018 62.3852 150.104 63.5446C150.227 65.1759 150.787 66.5684 152.364 67.4481C153.312 67.9783 153.977 68.7241 153.694 69.8311C153.361 71.1186 152.21 71.3459 151.04 71.3575C145.504 71.4158 139.963 71.4799 134.427 71.4566C132.291 71.4507 132.014 71.0546 131.903 68.6076C135.222 67.1102 135.511 64.1913 135.474 61.0626C135.363 52.8127 135.357 44.5628 135.259 36.3129C135.234 34.1805 135.123 32.0423 134.871 29.9274C134.347 25.5869 130.548 23.8448 126.62 26.0821C124.711 27.1716 123.307 28.6864 122.704 30.7547C120.746 37.4723 120.253 44.3181 120.955 51.2222C121.208 53.7041 121.928 56.157 122.63 58.5748C123.16 60.3984 124.305 61.8899 126.521 62.7289C127.501 62.4318 128.646 62.0822 129.785 61.7326C131.417 62.3852 131.3 63.4514 130.536 64.57C128.984 66.848 127.371 69.0795 125.85 71.241C117.532 73.0879 112.193 68.9979 109.133 62.9095C107.311 59.2798 106.363 55.3821 106.012 51.4086C105.427 44.7959 105.698 38.2181 107.68 31.7918C109.484 25.9597 112.889 21.2347 118.806 18.543C126.768 14.9191 134.304 16.0377 141.379 20.7977C141.545 20.9084 141.712 21.025 141.644 20.9783C144.889 19.5276 147.869 17.6458 151.145 16.8534C158.188 15.158 164.82 16.3465 170.232 21.293C174.154 24.8819 175.109 29.5603 174.542 34.431C174.007 39.0454 172.892 43.5957 172.159 48.1867C171.654 51.3562 171.433 54.5547 172.517 57.6892C173.508 60.5499 176.137 62.6998 178.637 62.7173C181.02 62.7347 183.834 60.5441 184.837 57.765C185.268 56.5764 185.668 55.3413 185.792 54.1061C186.592 46.0485 186.272 38.0433 183.988 30.2012C183.39 28.2087 182.781 26.0297 180.269 24.9052ZM181.229 74.4745C181.18 74.3464 181.124 74.2182 181.069 74.0958C180.059 71.9052 177.91 71.4682 176.211 73.2394C174.21 75.3252 174.333 79.6773 176.463 81.6582C177.836 82.9342 180.17 82.439 180.983 80.7901C181.057 80.6387 181.131 80.4755 181.192 80.3182C181.949 78.448 181.962 76.3506 181.229 74.4745Z" fill="#222222"/>
<path d="M230.315 15.5658C231.288 18.6828 233.615 21.3104 233.351 25.1849C232.095 24.9809 231.109 24.9343 230.21 24.6488C227.692 23.8448 225.685 24.3284 223.862 26.2394C220.765 29.4788 219.33 33.3765 218.727 37.5539C217.613 45.2445 218.37 52.8127 220.839 60.2295C224.213 70.3729 231.608 76.2399 242.463 78.2499C250.326 79.7065 258.183 79.3452 265.88 77.1546C268.952 76.2807 271.803 74.9348 273.853 72.4645C274.457 71.742 274.918 70.9147 275.676 69.8019H249.489C247.956 67.5938 246.164 65.4031 244.883 62.6532C245.936 62.1055 246.798 61.6569 247.734 61.1675C249.52 58.266 249.711 54.9101 249.803 51.6591C249.901 48.0935 249.397 44.5104 249.132 40.9389C249.095 40.4612 248.929 39.9892 248.793 39.5231C248.073 37.1344 246.386 35.6021 244.458 35.5672C242.476 35.5322 240.161 37.181 239.594 39.4066C239.021 41.6555 238.609 43.9744 238.449 46.2815C238.184 50.0511 238.135 53.8265 239.003 57.5727C239.6 60.1479 240.622 62.1871 243.695 62.4259C243.744 64.6049 243.744 64.6049 238.03 70.1398C233.979 69.901 230.765 68.089 228.271 65.0128C224.293 60.1013 223.647 54.3508 223.782 48.4605C223.831 46.2524 224.225 44.021 224.693 41.8478C226.454 33.6911 232.082 28.9835 240.388 27.3755C248.602 25.785 255.812 27.9057 261.003 34.565C262.111 35.9925 262.924 37.6005 263.423 39.3134C264.79 44.0151 265.245 48.7868 264.353 53.6808C263.706 57.2173 262.302 60.3402 259.661 63.2533H275.633C275.633 60.9111 275.657 58.802 275.627 56.6988C275.473 46.4097 275.306 36.1265 275.146 25.8374C275.134 25.0625 275.159 24.2818 275.128 23.5069C275.054 21.4386 274.592 19.5801 272.474 18.5605C271.871 18.2692 271.483 17.6865 271.477 17.0457C271.477 16.9408 271.477 16.8301 271.47 16.7194C271.458 15.7231 272.289 14.9016 273.342 14.8841C277.08 14.8142 285.324 14.6569 289.296 14.5695C289.912 14.5579 290.527 14.6045 291.143 14.6045C292.288 14.6045 293.15 15.024 293.489 16.1076C293.809 17.1156 293.267 17.8672 292.393 18.2808C290.016 19.3994 289.905 21.4386 289.912 23.5069C289.936 29.8167 290.01 36.1265 290.053 42.4362C290.096 48.3673 290.115 54.3042 290.164 60.2353C290.176 61.7326 290.256 64.1855 290.41 65.677C290.909 70.3904 288.68 74.0143 285.047 76.8866C282.874 78.6053 280.355 80.0386 277.788 81.198C268.934 85.1889 259.581 86.7795 249.741 86.3541C243.683 86.092 237.63 85.9114 231.762 84.3791C222.945 82.0836 215.199 78.1159 210.064 70.6176C207.133 66.3353 205.39 61.5928 204.627 56.5298C203.272 47.5691 203.482 38.725 206.868 30.1371C208.241 26.6531 210.181 23.472 213.105 20.9084C217.92 16.6844 223.696 15.2978 230.315 15.5658Z" fill="#222222"/>
<path d="M460.235 67.0636C459.052 65.4789 457.71 63.7951 456.503 62.0298C455.764 60.9577 456.128 59.9964 457.273 59.3264C461.14 59.641 462.962 58.5865 463.966 55.0966C466.447 46.4796 466.558 37.8627 463.449 29.3506C462.544 26.8745 461.232 24.5382 459.071 22.7728C456.035 20.2908 452.852 19.4169 448.597 19.8655C450.057 21.794 451.694 23.6467 452.975 25.7092C455.457 29.706 456.473 34.1397 456.953 38.725C457.525 44.1725 457.175 49.5326 455.703 54.8402C451.676 69.3708 434.848 71.7828 425.243 64.0398C422.891 62.1463 421.29 59.6002 420.212 56.8328C417.109 48.8567 416.863 40.7525 419.098 32.555C420.372 27.8882 422.694 23.7749 426.954 20.1102C425.508 20.1102 424.639 20.0403 423.796 20.1219C418.488 20.6462 414.683 23.1573 412.356 27.7542C410.878 30.679 409.843 33.7261 409.523 36.9188C408.901 43.1354 409.018 49.3286 411.272 55.318C411.58 56.1336 411.961 56.9318 412.374 57.7067C413.248 59.3439 414.603 60.1654 416.61 59.8915C417.294 59.7983 418.002 59.8741 418.531 59.8741C419.732 61.1384 419.473 62.1638 418.617 63.195C417.417 64.6341 416.241 66.0906 415.052 67.5472C408.058 68.124 400.558 64.0806 397.332 56.087C393.502 46.5845 393.36 36.9305 397.363 27.4046C400.78 19.2596 407.467 14.6511 416.272 12.7692C422.558 11.4292 428.913 11.7962 435.181 13.1479C436.726 13.48 438.136 13.4334 439.682 13.078C447.15 11.3651 454.668 10.7534 462.113 13.1887C469.489 15.5949 474.809 20.1394 477.524 27.1425C480.911 35.8701 481.262 44.7318 478.386 53.6459C476.946 58.1204 474.415 61.8899 470.16 64.5292C467.217 66.347 464.046 67.1219 460.235 67.0636ZM437.422 25.4412C435.014 28.2436 433.377 31.9374 432.829 35.0544C431.806 40.869 432.398 46.6602 433.019 52.4398C433.192 54.0129 433.955 55.6268 434.811 57.0251C436.492 59.775 439.478 59.5944 440.95 56.6813C441.553 55.4811 441.837 54.1178 442.163 52.8069C442.372 51.9621 442.428 51.0823 442.502 50.2142C443.031 44.2016 443.271 38.2006 441.406 32.3278C440.605 29.8342 439.842 27.2939 437.422 25.4412Z" fill="#222222"/>
<path d="M315.821 67.1801C315.039 68.9338 313.691 69.1436 312.546 69.1669C306.702 69.2601 300.859 69.2135 295.016 69.1902C294.739 69.1902 294.462 68.9804 294.215 68.8756C293.378 66.5392 293.378 66.5392 296.703 64.4302C296.888 63.1251 297.313 61.5287 297.319 59.9207C297.356 52.9351 297.282 45.9494 297.22 38.9638C297.202 36.7382 296.956 34.5126 297.029 32.2928C297.337 23.2739 302.749 16.9058 311.961 14.7443C318.919 13.113 325.913 12.8741 332.914 14.4122C337.101 15.3328 340.863 17.0224 343.351 20.5647C345.992 24.3342 346.312 28.3893 344.508 32.4851C343.074 35.7478 339.699 37.3908 335.666 36.8897C333.856 36.6625 332.674 37.2568 331.713 38.4919C330.894 39.5465 331.055 41.4866 331.947 42.5994C332.97 43.8811 334.349 44.3589 336.011 44.0734C336.313 44.021 336.602 43.9219 336.904 43.8578C341.633 42.9023 344.404 44.3472 345.807 48.7577C347.433 53.8731 347.421 58.8661 344.127 63.5329C341.83 66.7839 338.548 68.357 334.57 68.5609C330.685 68.7649 326.775 68.7124 322.878 68.7008C320.556 68.6949 319.848 68.1764 319.128 66.0091C318.42 63.8883 317.841 61.7326 317.219 59.6527C318.605 57.765 318.974 57.5844 320.507 58.8487C322.373 60.3868 324.448 60.7189 326.788 60.5149C330.993 60.1479 332.323 54.7645 330.353 52.3583C329.601 51.4436 328.622 51.0707 327.428 51.0124C326.006 50.9425 324.571 50.8668 323.161 50.6628C320.938 50.3424 319.442 49.0606 318.678 47.1089C317.139 43.1587 316.905 39.0862 318.457 35.1535C319.436 32.6715 321.554 31.0926 324.614 31.1567C325.538 31.1742 326.455 31.2383 327.379 31.2383C329.903 31.2499 331.307 29.7701 331.092 27.3522C330.765 23.6526 328.419 21.3745 324.386 20.99C323.173 20.8735 321.917 20.9492 320.704 21.0832C314.892 21.7474 311.942 25.4004 311.684 30.7547C311.456 35.3924 311.758 40.0592 311.825 44.7085C311.887 49.0606 311.942 53.4128 312.016 57.765C312.041 59.1225 312.035 60.48 312.158 61.8317C312.275 63.1134 312.755 64.2204 313.943 65.0594C314.701 65.6071 315.212 66.4752 315.821 67.1801Z" fill="#222222"/>
<path d="M350.77 47.4584C355.099 46.6952 359.107 45.9844 363.116 45.2794C364.125 45.1046 365.123 44.8949 366.139 44.7609C367.093 44.6327 367.992 44.6968 368.516 45.6581C369.027 46.6078 368.602 47.4526 367.949 48.041C364.544 51.1406 365.634 54.7645 366.533 58.3476C366.687 58.971 367.192 59.5595 367.666 60.0547C369.445 61.9074 371.65 61.8084 373.041 59.6935C373.842 58.4758 374.494 57.0891 374.821 55.6967C377.191 45.6931 377.191 35.7128 374.186 25.8083C373.823 24.6139 373.257 23.4253 372.53 22.3941C371.243 20.5589 369.495 20.3433 367.888 21.8872C366.989 22.7495 366.071 23.9264 365.905 25.0567C365.585 27.2357 365.646 29.4962 365.868 31.6986C365.954 32.5259 366.915 33.2775 367.475 34.0698C367.918 34.6932 368.362 35.3225 368.842 36.0041C368.374 36.6683 367.992 37.2043 367.481 37.9268C362.026 37.0761 356.595 36.2313 351.232 35.3924C349.249 22.0853 359.033 9.75708 375.122 13.4276C381.754 14.9424 386.132 19.0033 388.342 24.9343C392.055 34.8971 392.369 45.058 389.34 55.2481C388.151 59.2448 386.033 62.758 382.542 65.3973C373.14 72.4994 355.074 71.0662 351.601 54.5198C351.121 52.2651 351.047 49.9346 350.77 47.4584Z" fill="#222222"/>
<path d="M484.26 46.7826C483.829 41.2127 485.313 36.1556 488.909 31.7743C492.745 27.1017 497.763 24.4799 504.185 24.3168C508.711 24.2002 512.941 24.8353 516.808 27.1832C522.996 30.9411 525.878 36.546 526.5 43.2286C526.832 46.7826 526.567 50.3541 525.477 53.8789C523.261 61.0626 516.746 66.6266 507.72 67.3549C495.775 68.3162 487.616 61.7385 484.944 51.9504C484.494 50.2841 484.482 48.5072 484.26 46.7826ZM499.284 45.326C499.284 46.6836 499.167 48.0469 499.309 49.3927C499.617 52.3117 500.479 55.0908 502.16 57.5844C503.995 60.3052 507.455 60.3576 509.117 57.5611C510.004 56.0696 510.725 54.3625 510.959 52.6845C511.39 49.6316 511.667 46.5088 511.525 43.4384C511.377 40.2689 510.829 37.0878 508.951 34.2796C508.034 32.8988 506.821 32.3161 505.128 32.3394C503.336 32.3627 502.344 33.3241 501.556 34.6757C499.611 37.9909 499.069 41.5973 499.284 45.326Z" fill="#222222"/>
</svg>
