<svg width="527" height="91" viewBox="0 0 527 91" fill="none" xmlns="http://www.w3.org/2000/svg">
<path d="M89.3813 44.7803C89.3813 69.3774 69.4414 89.3174 44.8442 89.3174C20.2471 89.3174 0.307129 69.3774 0.307129 44.7803C0.307129 20.1831 20.2471 0.243164 44.8442 0.243164C69.4414 0.243164 89.3813 20.1831 89.3813 44.7803Z" fill="#1A417C"/>
<path d="M48.2452 45.8663C51.2305 45.8663 53.6505 43.4464 53.6505 40.4613C53.6505 37.4762 51.2305 35.0563 48.2452 35.0563C45.2603 35.0563 42.8404 37.4762 42.8404 40.4613C42.8404 43.4464 45.2603 45.8663 48.2452 45.8663Z" fill="white"/>
<path d="M22.5635 60.8046C18.3482 69.844 19.3624 77.7463 21.024 82.4189C24.314 84.5055 27.8965 86.1725 31.6959 87.3448C36.5689 85.205 42.586 80.928 46.7149 72.9733C51.9005 62.9839 48.5157 50.4187 44.9068 46.9109L37.7276 62.0966C38.7745 62.8746 39.4532 64.121 39.4532 65.5259C39.4532 67.8839 37.5416 69.7954 35.1837 69.7954C32.8257 69.7954 30.9141 67.8839 30.9141 65.5259C30.9141 63.1678 32.8257 61.2563 35.1837 61.2563C35.584 61.2563 35.9717 61.3115 36.3394 61.4146L44.6275 46.8158C39.5777 46.2129 27.3511 50.5365 22.5635 60.8046Z" fill="white"/>
<path d="M180.269 25.111C176.919 26.4219 176.919 26.4219 175.577 24.4527C177.03 21.9066 178.526 19.2732 180.121 16.4708C185.151 15.7367 189.597 16.7504 193.291 20.2811C197.14 23.9574 198.71 28.6767 199.916 33.5066C201.049 38.051 201.758 42.6945 201.21 47.3555C200.772 51.0901 200.126 54.848 199.042 58.4485C197.7 62.9114 194.424 66.145 189.935 68.6153C190.865 69.3086 191.635 69.8854 192.411 70.4505C196.869 73.6957 197.811 78.5897 194.861 83.0934C193.642 84.9578 192.023 86.4435 189.979 87.4223C181.34 91.553 172.855 91.5122 164.678 86.3036C162.763 85.0859 161.495 83.3556 160.676 81.2814C159.334 77.9022 160.19 74.995 162.653 72.4314C163.613 71.4352 164.777 70.6137 166.008 69.5766C164.678 68.5279 163.299 67.5607 162.074 66.4479C157.154 61.9617 155.91 56.3103 156.723 50.1695C157.382 45.1706 158.466 40.2242 159.131 35.2311C159.383 33.3493 159.075 31.3742 158.829 29.4632C158.724 28.6417 158.182 27.8435 157.757 27.0803C156.963 25.647 155.627 25.0178 153.958 25.0586C152.21 25.0994 151.052 26.1306 150.436 27.4998C149.932 28.6242 149.667 29.9293 149.667 31.1586C149.661 40.8651 149.734 50.5657 149.815 60.2721C149.827 61.4316 150.018 62.591 150.104 63.7504C150.227 65.3817 150.787 66.7742 152.364 67.6539C153.312 68.1841 153.977 68.9299 153.694 70.0369C153.361 71.3245 152.21 71.5517 151.04 71.5633C145.504 71.6216 139.963 71.6857 134.427 71.6624C132.291 71.6566 132.014 71.2604 131.903 68.8134C135.222 67.316 135.511 64.3971 135.474 61.2684C135.363 53.0185 135.357 44.7686 135.259 36.5187C135.234 34.3863 135.123 32.2481 134.871 30.1332C134.347 25.7927 130.548 24.0506 126.62 26.2879C124.711 27.3774 123.307 28.8922 122.704 30.9605C120.746 37.6781 120.253 44.5239 120.955 51.428C121.208 53.9099 121.928 56.3628 122.63 58.7806C123.16 60.6042 124.305 62.0957 126.521 62.9347C127.501 62.6376 128.646 62.288 129.785 61.9384C131.417 62.591 131.3 63.6572 130.536 64.7758C128.984 67.0538 127.371 69.2853 125.85 71.4468C117.532 73.2937 112.193 69.2037 109.133 63.1153C107.311 59.4856 106.363 55.5879 106.012 51.6144C105.427 45.0017 105.698 38.4239 107.68 31.9976C109.484 26.1656 112.889 21.4405 118.806 18.7488C126.768 15.1249 134.304 16.2435 141.379 21.0035C141.545 21.1142 141.712 21.2308 141.644 21.1842C144.889 19.7334 147.869 17.8516 151.145 17.0592C158.188 15.3638 164.82 16.5523 170.232 21.4988C174.154 25.0877 175.109 29.7662 174.542 34.6369C174.007 39.2512 172.892 43.8015 172.159 48.3925C171.654 51.562 171.433 54.7606 172.517 57.8951C173.508 60.7557 176.137 62.9056 178.637 62.9231C181.02 62.9405 183.834 60.7499 184.837 57.9708C185.268 56.7823 185.668 55.5471 185.792 54.3119C186.592 46.2543 186.272 38.2491 183.988 30.407C183.39 28.4145 182.781 26.2355 180.269 25.111ZM181.229 74.6804C181.18 74.5522 181.124 74.424 181.069 74.3016C180.059 72.111 177.91 71.674 176.211 73.4452C174.21 75.531 174.333 79.8831 176.463 81.8641C177.836 83.14 180.17 82.6448 180.983 80.9959C181.057 80.8445 181.131 80.6813 181.192 80.524C181.949 78.6538 181.962 76.5564 181.229 74.6804Z" fill="white"/>
<path d="M230.315 15.7716C231.288 18.8886 233.615 21.5162 233.351 25.3907C232.095 25.1868 231.109 25.1401 230.21 24.8547C227.692 24.0506 225.685 24.5342 223.862 26.4452C220.765 29.6846 219.33 33.5823 218.727 37.7597C217.613 45.4503 218.37 53.0185 220.839 60.4353C224.213 70.5787 231.608 76.4457 242.463 78.4557C250.326 79.9123 258.183 79.551 265.88 77.3604C268.952 76.4865 271.803 75.1406 273.853 72.6703C274.457 71.9478 274.918 71.1205 275.676 70.0077H249.489C247.956 67.7996 246.164 65.6089 244.883 62.859C245.936 62.3113 246.798 61.8627 247.734 61.3733C249.52 58.4718 249.711 55.116 249.803 51.8649C249.901 48.2993 249.397 44.7162 249.132 41.1447C249.095 40.667 248.929 40.1951 248.793 39.729C248.073 37.3402 246.386 35.8079 244.458 35.773C242.476 35.738 240.161 37.3868 239.594 39.6124C239.021 41.8613 238.609 44.1802 238.449 46.4873C238.184 50.2569 238.135 54.0323 239.003 57.7785C239.6 60.3537 240.622 62.3929 243.695 62.6318C243.744 64.8108 243.744 64.8108 238.03 70.3456C233.979 70.1068 230.765 68.2948 228.271 65.2186C224.293 60.3071 223.647 54.5566 223.782 48.6663C223.831 46.4582 224.225 44.2268 224.693 42.0536C226.454 33.8969 232.082 29.1894 240.388 27.5813C248.602 25.9908 255.812 28.1115 261.003 34.7709C262.111 36.1983 262.924 37.8063 263.423 39.5192C264.79 44.221 265.245 48.9926 264.353 53.8866C263.706 57.4231 262.302 60.546 259.661 63.4591H275.633C275.633 61.1169 275.657 59.0079 275.627 56.9046C275.473 46.6155 275.306 36.3323 275.146 26.0432C275.134 25.2683 275.159 24.4876 275.128 23.7127C275.054 21.6444 274.592 19.7859 272.474 18.7663C271.871 18.475 271.483 17.8923 271.477 17.2515C271.477 17.1466 271.477 17.0359 271.47 16.9252C271.458 15.9289 272.289 15.1074 273.342 15.0899C277.08 15.02 285.324 14.8627 289.296 14.7753C289.912 14.7637 290.527 14.8103 291.143 14.8103C292.288 14.8103 293.15 15.2298 293.489 16.3134C293.809 17.3214 293.267 18.073 292.393 18.4866C290.016 19.6053 289.905 21.6444 289.912 23.7127C289.936 30.0225 290.01 36.3323 290.053 42.6421C290.096 48.5731 290.115 54.51 290.164 60.4411C290.176 61.9384 290.256 64.3913 290.41 65.8828C290.909 70.5962 288.68 74.2201 285.047 77.0924C282.874 78.8111 280.355 80.2444 277.788 81.4038C268.934 85.3947 259.581 86.9853 249.741 86.56C243.683 86.2978 237.63 86.1172 231.762 84.5849C222.945 82.2894 215.199 78.3217 210.064 70.8234C207.133 66.5411 205.39 61.7986 204.627 56.7356C203.272 47.7749 203.482 38.9308 206.868 30.3429C208.241 26.8589 210.181 23.6778 213.105 21.1142C217.92 16.8902 223.696 15.5036 230.315 15.7716Z" fill="white"/>
<path d="M460.235 67.2694C459.052 65.6847 457.71 64.0009 456.503 62.2356C455.764 61.1636 456.128 60.2022 457.273 59.5322C461.14 59.8468 462.962 58.7923 463.966 55.3024C466.447 46.6854 466.558 38.0685 463.449 29.5564C462.544 27.0803 461.232 24.744 459.071 22.9786C456.035 20.4967 452.852 19.6227 448.597 20.0714C450.057 21.9998 451.694 23.8526 452.975 25.915C455.457 29.9118 456.473 34.3455 456.953 38.9308C457.525 44.3783 457.175 49.7384 455.703 55.046C451.676 69.5766 434.848 71.9886 425.243 64.2456C422.891 62.3521 421.29 59.806 420.212 57.0386C417.109 49.0625 416.863 40.9583 419.098 32.7608C420.372 28.094 422.694 23.9807 426.954 20.316C425.508 20.316 424.639 20.2461 423.796 20.3277C418.488 20.8521 414.683 23.3632 412.356 27.96C410.878 30.8848 409.843 33.9319 409.523 37.1246C408.901 43.3412 409.018 49.5345 411.272 55.5238C411.58 56.3395 411.961 57.1377 412.374 57.9125C413.248 59.5497 414.603 60.3712 416.61 60.0974C417.294 60.0041 418.002 60.0799 418.531 60.0799C419.732 61.3442 419.473 62.3696 418.617 63.4008C417.417 64.8399 416.241 66.2964 415.052 67.753C408.058 68.3298 400.558 64.2864 397.332 56.2929C393.502 46.7903 393.36 37.1363 397.363 27.6105C400.78 19.4654 407.467 14.8569 416.272 12.975C422.558 11.635 428.913 12.0021 435.181 13.3537C436.726 13.6858 438.136 13.6392 439.682 13.2838C447.15 11.5709 454.668 10.9592 462.113 13.3945C469.489 15.8007 474.809 20.3452 477.524 27.3483C480.911 36.0759 481.262 44.9376 478.386 53.8517C476.946 58.3262 474.415 62.0958 470.16 64.735C467.217 66.5528 464.046 67.3277 460.235 67.2694ZM437.422 25.647C435.014 28.4494 433.377 32.1432 432.829 35.2603C431.806 41.0748 432.398 46.8661 433.019 52.6457C433.192 54.2187 433.955 55.8326 434.811 57.2309C436.492 59.9808 439.478 59.8002 440.95 56.8871C441.553 55.6869 441.837 54.3236 442.163 53.0127C442.372 52.1679 442.428 51.2881 442.502 50.42C443.031 44.4074 443.271 38.4064 441.406 32.5336C440.605 30.04 439.842 27.4998 437.422 25.647Z" fill="white"/>
<path d="M315.821 67.3859C315.039 69.1396 313.691 69.3494 312.546 69.3727C306.702 69.4659 300.859 69.4193 295.016 69.396C294.739 69.396 294.462 69.1862 294.215 69.0814C293.378 66.7451 293.378 66.745 296.703 64.636C296.888 63.3309 297.313 61.7345 297.319 60.1265C297.356 53.1409 297.282 46.1553 297.22 39.1696C297.202 36.944 296.956 34.7184 297.029 32.4986C297.337 23.4797 302.749 17.1116 311.961 14.9501C318.919 13.3188 325.913 13.0799 332.914 14.618C337.101 15.5386 340.863 17.2282 343.351 20.7705C345.992 24.54 346.312 28.5951 344.508 32.6909C343.074 35.9536 339.699 37.5966 335.666 37.0955C333.856 36.8683 332.674 37.4626 331.713 38.6977C330.894 39.7523 331.055 41.6924 331.947 42.8052C332.97 44.087 334.349 44.5647 336.011 44.2792C336.313 44.2268 336.602 44.1277 336.904 44.0636C341.633 43.1082 344.404 44.5531 345.807 48.9635C347.433 54.0789 347.421 59.0719 344.127 63.7387C341.83 66.9898 338.548 68.5628 334.57 68.7667C330.685 68.9707 326.775 68.9182 322.878 68.9066C320.556 68.9008 319.848 68.3822 319.128 66.2149C318.42 64.0941 317.841 61.9384 317.219 59.8585C318.605 57.9708 318.974 57.7902 320.507 59.0545C322.373 60.5926 324.448 60.9247 326.788 60.7208C330.993 60.3537 332.323 54.9703 330.353 52.5641C329.601 51.6494 328.622 51.2765 327.428 51.2182C326.006 51.1483 324.571 51.0726 323.161 50.8687C320.938 50.5482 319.442 49.2664 318.678 47.3147C317.139 43.3645 316.905 39.292 318.457 35.3593C319.436 32.8773 321.554 31.2984 324.614 31.3625C325.538 31.38 326.455 31.4441 327.379 31.4441C329.903 31.4557 331.307 29.9759 331.092 27.558C330.765 23.8584 328.419 21.5803 324.386 21.1958C323.173 21.0793 321.917 21.155 320.704 21.289C314.892 21.9532 311.942 25.6062 311.684 30.9605C311.456 35.5982 311.758 40.265 311.825 44.9143C311.887 49.2664 311.942 53.6186 312.016 57.9708C312.041 59.3283 312.035 60.6858 312.158 62.0375C312.275 63.3192 312.755 64.4262 313.943 65.2652C314.701 65.8129 315.212 66.681 315.821 67.3859Z" fill="white"/>
<path d="M350.77 47.6642C355.099 46.901 359.107 46.1902 363.116 45.4852C364.125 45.3105 365.123 45.1007 366.139 44.9667C367.093 44.8385 367.992 44.9026 368.516 45.8639C369.027 46.8136 368.602 47.6584 367.949 48.2469C364.544 51.3464 365.634 54.9703 366.533 58.5534C366.687 59.1768 367.192 59.7653 367.666 60.2605C369.445 62.1132 371.65 62.0142 373.041 59.8993C373.842 58.6816 374.494 57.295 374.821 55.9025C377.191 45.8989 377.191 35.9186 374.186 26.0141C373.823 24.8197 373.257 23.6312 372.53 22.5999C371.243 20.7647 369.495 20.5491 367.888 22.093C366.989 22.9553 366.071 24.1322 365.905 25.2625C365.585 27.4415 365.646 29.7021 365.868 31.9044C365.954 32.7317 366.915 33.4833 367.475 34.2756C367.918 34.899 368.362 35.5283 368.842 36.2099C368.374 36.8741 367.992 37.4101 367.481 38.1326C362.026 37.282 356.595 36.4371 351.232 35.5982C349.249 22.2911 359.033 9.96289 375.122 13.6334C381.754 15.1482 386.132 19.2091 388.342 25.1401C392.055 35.103 392.369 45.2638 389.34 55.4539C388.151 59.4506 386.033 62.9638 382.542 65.6031C373.14 72.7053 355.074 71.272 351.601 54.7256C351.121 52.4709 351.047 50.1404 350.77 47.6642Z" fill="white"/>
<path d="M484.26 46.9884C483.829 41.4186 485.313 36.3614 488.909 31.9801C492.745 27.3075 497.763 24.6857 504.185 24.5226C508.711 24.406 512.941 25.0411 516.808 27.3891C522.996 31.147 525.878 36.7518 526.5 43.4344C526.832 46.9884 526.567 50.5599 525.477 54.0847C523.261 61.2684 516.746 66.8324 507.72 67.5607C495.775 68.522 487.616 61.9443 484.944 52.1562C484.494 50.4899 484.482 48.713 484.26 46.9884ZM499.284 45.5319C499.284 46.8894 499.167 48.2527 499.309 49.5985C499.617 52.5175 500.479 55.2966 502.16 57.7902C503.995 60.511 507.455 60.5635 509.117 57.7669C510.004 56.2754 510.725 54.5683 510.959 52.8903C511.39 49.8374 511.667 46.7146 511.525 43.6442C511.377 40.4747 510.829 37.2936 508.951 34.4854C508.034 33.1046 506.821 32.5219 505.128 32.5452C503.336 32.5686 502.344 33.5299 501.556 34.8816C499.611 38.1967 499.069 41.8031 499.284 45.5319Z" fill="white"/>
</svg>
